# xmcd
#
# Track frame offsets:
#	150
#	22104
#	33713
#	51657
#	69357
#	86899
#	108383
#	129233
#	147914
#	165494
#	183193
#	203141
#
# Disc length: 2939 seconds
# Revision: 0
# Processed by: cddbd v1.5.2PL0 Copyright (c) Steve Scherf et al.
# Submitted via: dBpowerAMP V12.0
#
DISCID=ab0b790c
DTITLE=Richie McDonald - If Every Day Could Be Christmas
DYEAR=2007
DGENRE=Country
TTITLE0=If Every Day Could Be Christmas
TTITLE1=Why Santa's Fat
TTITLE2=The Christmas Song
TTITLE3=Mary Did You Know
TTITLE4=It's The Most Wonderful Time Of The Yeat
TTITLE5=Christmas In New York
TTITLE6=Coming Home For Christmas
TTITLE7=Peterbilt Sleigh
TTITLE8=O Holy Night
TTITLE9=White Christmas
TTITLE10=Christmas Lights
TTITLE11=Blessed Are The Hands That Give
EXTD=
EXTT0=
EXTT1=
EXTT2=
EXTT3=
EXTT4=
EXTT5=
EXTT6=
EXTT7=
EXTT8=
EXTT9=
EXTT10=
EXTT11=
PLAYORDER=
